<!DOCTYPE svg PUBLIC "-//W3C//DTD SVG 1.1//EN" "http://www.w3.org/Graphics/SVG/1.1/DTD/svg11.dtd">
<!-- Uploaded to: SVG Repo, www.svgrepo.com, Transformed by: SVG Repo Mixer Tools -->
<svg fill="#364f59" height="800px" width="800px" version="1.1" id="Layer_1" xmlns="http://www.w3.org/2000/svg" xmlns:xlink="http://www.w3.org/1999/xlink" viewBox="0 0 512.001 512.001" xml:space="preserve">
<g id="SVGRepo_bgCarrier" stroke-width="0"/>
<g id="SVGRepo_tracerCarrier" stroke-linecap="round" stroke-linejoin="round"/>
<g id="SVGRepo_iconCarrier"> <g> <g> <g> <path d="M343.544,319.899h-0.001c93.556-55.481,105.849-170.675,53.643-245.884C329.838-26.02,177.811-24.398,112.612,77.33 c-31.626,47.712-36.151,105.07-18.091,154.825C129.883,329.588,249.792,375.497,343.544,319.899z M188.347,174.547 c55.8,45.374,134.07,51.646,196.643,14.312c-4.576,40.406-27.106,73.994-62.743,95.128 c-68.906,40.862-155.3,8.984-185.189-58.009C157.638,212.649,175.132,195.094,188.347,174.547z"/> <path d="M474.418,438.655l-80.981-96.869c-3.344-4.001-9.695-3.019-11.756,1.773c-22.92,53.299-67.571,94.613-125.669,94.613 c-58.526,0-103.138-42.531-125.702-94.708c-2.057-4.756-8.391-5.684-11.716-1.708l-81.006,96.899 c-24.335,29.109-3.607,73.346,34.283,73.346h368.263C478.076,512.001,498.721,467.726,474.418,438.655z"/> </g> </g> </g> </g>
</svg>